<?xml version="1.0" encoding="utf-8"?>
<!-- Generator: Adobe Illustrator 22.0.1, SVG Export Plug-In . SVG Version: 6.00 Build 0)  -->
<svg version="1.1" xmlns="http://www.w3.org/2000/svg" xmlns:xlink="http://www.w3.org/1999/xlink" x="0px" y="0px"
	 viewBox="0 0 158.5 179.9" enable-background="new 0 0 158.5 179.9" xml:space="preserve">
<g id="Layer_2" display="none">
	<rect display="inline" width="158.5" height="179.9"/>
</g>
<g id="Layer_1">
	<g>
		<g>
			<path fill="#FFFFFF" d="M19.8,68.8c1.4,5,2.7,9.8,4.3,15.7c1.7-2.2,2.7-3.5,4-5.2c1.5,0.7,3.1,1.4,5.6,2.5
				c-1.5-5.4-2.8-10.2-4.2-15.5c4.7-1.3,8.7-2.4,13.4-3.7c1.7,6.1,3.9,12.2,4.8,18.6c0.3,2-2.5,5.8-4.5,6.4
				c-13.2,4.1-26.5,7.6-39.8,11.1c-3.8,1-6.7-0.5-7.8-4.4c-1.7-5.7-3.2-11.4-4.8-17.5C0.5,74,9.9,71.5,19.8,68.8z"/>
			<path fill="#FFFFFF" d="M41.9,60C24.6,64.8,7.5,69.4-9.5,74.1c-2.9-6.7-1.9-9.2,4.6-11c12.4-3.5,24.8-6.9,37.2-10.2
				C38.5,51.3,40.4,52.8,41.9,60z"/>
			<path fill="#FFFFFF" d="M10.7,45.6c3.6-1,7.1-2.1,10.8-2.9c4.8-1.1,7.6,1.2,8.3,5.8c0.2,1.1-0.8,2.3-1.3,3.5
				c-1-0.5-2.7-0.8-2.9-1.6c-1.2-4-3.9-3.2-6.7-2.4c-4.3,1.2-8.6,2.3-12.9,3.5c-3.4,1-7.9,1-6.3,6.8c0.1,0.5-1.3,1.8-2.1,1.9
				c-0.7,0.1-2-0.7-2.4-1.5c-2.3-4.1-0.8-8.3,3.7-9.9C2.7,47.5,6.7,46.7,10.7,45.6z"/>
		</g>
		
			<rect x="57.9" y="-4.4" transform="matrix(0.9645 -0.2639 0.2639 0.9645 2.5602 32.2716)" fill="#FFFFFF" width="127" height="22"/>
		
			<rect x="65" y="26.6" transform="matrix(0.9645 -0.2639 0.2639 0.9645 -4.06 35.0754)" opacity="0.6" fill="#FFFFFF" width="127" height="12"/>
		<g opacity="0.76">
			<path fill="#FFFFFF" d="M46.2,17.9l22.2,81l-81,22.2l-22.2-81L46.2,17.9 M47.6,15.4l-84.9,23.2l23.2,84.9l84.9-23.2L47.6,15.4
				L47.6,15.4z"/>
		</g>
		
			<rect x="70.8" y="47.9" transform="matrix(0.9645 -0.2639 0.2639 0.9645 -9.4543 37.3599)" opacity="0.6" fill="#FFFFFF" width="127" height="12"/>
		
			<rect x="77.7" y="76.9" transform="matrix(0.9645 -0.2639 0.2639 0.9645 -17.932 32.3637)" opacity="0.6" fill="#FFFFFF" width="67.6" height="12"/>
		
			<rect x="-14.1" y="103.3" transform="matrix(0.9645 -0.2639 0.2639 0.9645 -25.0859 29.8105)" opacity="0.6" fill="#FFFFFF" width="225" height="10"/>
		
			<rect x="-8.8" y="122.6" transform="matrix(0.9645 -0.2639 0.2639 0.9645 -29.9898 31.8874)" opacity="0.6" fill="#FFFFFF" width="225" height="10"/>
		
			<rect x="-3.5" y="141.9" transform="matrix(0.9645 -0.2639 0.2639 0.9645 -34.8937 33.9642)" opacity="0.6" fill="#FFFFFF" width="225" height="10"/>
		
			<rect x="1.7" y="161.1" transform="matrix(0.9645 -0.2639 0.2639 0.9645 -39.7976 36.041)" opacity="0.6" fill="#FFFFFF" width="225" height="10"/>
	</g>
</g>
</svg>
